<svg width="1200" height="360" viewBox="0 0 1200 360" fill="none" xmlns="http://www.w3.org/2000/svg">
  <defs>
    <linearGradient id="sky" x1="96" y1="28" x2="1106" y2="334" gradientUnits="userSpaceOnUse">
      <stop stop-color="#F5F1E8"/>
      <stop offset="0.52" stop-color="#E8F0EB"/>
      <stop offset="1" stop-color="#D9E5E4"/>
    </linearGradient>
    <linearGradient id="sun" x1="0" y1="0" x2="1" y2="1">
      <stop stop-color="#E7A96B"/>
      <stop offset="1" stop-color="#D5805B"/>
    </linearGradient>
    <filter id="blur" x="-50%" y="-50%" width="200%" height="200%">
      <feGaussianBlur stdDeviation="28"/>
    </filter>
  </defs>

  <rect width="1200" height="360" rx="24" fill="url(#sky)"/>
  <circle cx="1008" cy="86" r="70" fill="#F4C891" opacity="0.32" filter="url(#blur)"/>
  <circle cx="1008" cy="86" r="38" fill="url(#sun)" opacity="0.9"/>

  <path d="M0 284C124 242 214 260 326 290C465 327 558 252 685 264C825 278 907 332 1200 249V360H0V284Z" fill="#91AAA0" opacity="0.46"/>
  <path d="M0 310C148 278 242 303 362 326C511 355 650 292 770 302C910 314 1012 347 1200 303V360H0V310Z" fill="#5E766D" opacity="0.58"/>

  <g opacity="0.76">
    <path d="M897 214C909 195 925 176 943 160" stroke="#455C54" stroke-width="3" stroke-linecap="round"/>
    <path d="M930 171C924 156 926 141 936 129" stroke="#455C54" stroke-width="2.5" stroke-linecap="round"/>
    <path d="M920 183C904 176 891 176 879 181" stroke="#455C54" stroke-width="2.5" stroke-linecap="round"/>
    <path d="M936 166C949 161 962 162 973 168" stroke="#455C54" stroke-width="2.5" stroke-linecap="round"/>
  </g>

  <text x="82" y="135" fill="#253630" font-family="'PingFang SC', 'Microsoft YaHei', sans-serif" font-size="54" letter-spacing="5">未选择的路</text>
  <text x="86" y="184" fill="#53665F" font-family="'PingFang SC', 'Microsoft YaHei', sans-serif" font-size="20" letter-spacing="5">写字 · 造物 · 生活</text>
  <line x1="86" y1="219" x2="335" y2="219" stroke="#D5805B" stroke-width="3"/>
  <text x="86" y="263" fill="#354941" font-family="'PingFang SC', 'Microsoft YaHei', sans-serif" font-size="23">把途经的风景，慢慢写成自己</text>
</svg>
